# xmcd
#
# Track frame offsets: 
#        150
#        18479
#        37968
#        56658
#        75970
#        102624
#        114256
#        137516
#        160991
#        191761
#        207873
#
# Disc length: 3032 seconds
#
# Revision: 0
# Processed by: cddbd v1.5.2PL0 Copyright (c) Steve Scherf et al.
# Submitted via: ExactAudioCopy v0.99pb4
#
DISCID=8a0bd60b
DTITLE=Wild Sweet Orange - We Have Cause To Be Uneasy
DYEAR=2008
DGENRE=Indie
TTITLE0=Ten Dead Dogs
TTITLE1=Tilt
TTITLE2=Seeing And Believing
TTITLE3=Either/Or
TTITLE4=Sour Milk
TTITLE5=An Atlas To Follow
TTITLE6=House Of Regret
TTITLE7=Crickets
TTITLE8=Aretha's Gold
TTITLE9=Night Terrors
TTITLE10=Land Of No Return
EXTD=
EXTT0=
EXTT1=
EXTT2=
EXTT3=
EXTT4=
EXTT5=
EXTT6=
EXTT7=
EXTT8=
EXTT9=
EXTT10=
PLAYORDER=
